<svg version="1.2" xmlns="http://www.w3.org/2000/svg" viewBox="0 0 601 90" width="601" height="90"><style>tspan{white-space:pre}.a{fill:#fee500}.b{fill-opacity:.9}.c{font-size: 30px;fill: #191919;font-weight: 500;font-family: "Apple SD Gothic Neo"}</style><path class="a" d="m13 0h576c6.6 0 12 5.4 12 12v66c0 6.6-5.4 12-12 12h-576c-6.6 0-12-5.4-12-12v-66c0-6.6 5.4-12 12-12z"/><path class="b" d="m207 28c-9.9 0-18 6.2-18 13.9 0 4.8 3.1 9.1 7.9 11.6l-2 7.3c-0.2 0.7 0.5 1.2 1.1 0.8l8.7-5.8q1.2 0.1 2.3 0.1c9.9 0 18-6.2 18-14 0-7.7-8.1-13.9-18-13.9"/><text style="transform:matrix(1,0,0,1,252.887,56.977)" ><tspan x="0" y="0" class="c" dx="0 0 0 0 0 0 0 0" >카카오 로그인
</tspan></text></svg>